<?xml version="1.0" standalone="no"?>
<!DOCTYPE svg PUBLIC "-//W3C//DTD SVG 20010904//EN"
 "http://www.w3.org/TR/2001/REC-SVG-20010904/DTD/svg10.dtd">
<svg version="1.0" xmlns="http://www.w3.org/2000/svg"
 width="1280.000000pt" height="1280.000000pt" viewBox="0 0 1280.000000 1280.000000"
 preserveAspectRatio="xMidYMid meet">

<g transform="translate(0.000000,1280.000000) scale(0.100000,-0.100000)"
fill="#000000" stroke="none">
<path d="M3250 12789 c-443 -31 -842 -129 -1222 -299 -98 -44 -237 -117 -300
-156 -21 -13 -40 -24 -43 -24 -18 0 -277 -180 -386 -268 -488 -392 -856 -898
-1069 -1467 -135 -363 -194 -647 -220 -1060 -16 -258 -8 -6248 8 -6390 53
-452 151 -802 328 -1172 35 -72 82 -161 104 -197 22 -37 40 -68 40 -71 0 -9
153 -240 199 -300 184 -242 390 -452 636 -650 72 -58 288 -205 360 -245 232
-130 410 -216 545 -263 25 -9 72 -26 105 -38 198 -72 500 -137 790 -171 140
-16 6132 -24 6390 -8 276 17 440 41 675 100 617 154 1143 453 1595 905 83 82
196 207 252 277 97 121 223 299 223 314 0 4 7 15 15 24 8 9 44 70 81 136 241
438 376 872 426 1379 19 193 19 6321 0 6510 -61 598 -234 1096 -549 1584 -275
425 -702 834 -1118 1072 -176 100 -319 172 -440 221 -379 153 -715 229 -1140
258 -181 12 -6112 11 -6285 -1z m4905 -3953 c-26 -21 -124 -83 -425 -269 -36
-22 -109 -69 -163 -103 -54 -35 -113 -66 -130 -69 -18 -3 -146 -5 -286 -3
l-254 3 49 50 c27 28 100 98 163 155 63 58 143 132 178 165 114 107 81 100
518 97 l380 -2 -30 -24z m-3417 -672 l60 -7 68 -171 c37 -94 113 -288 170
-431 56 -143 161 -411 234 -595 172 -436 257 -652 396 -1003 63 -158 114 -292
114 -297 0 -7 -135 -10 -384 -10 l-384 1 -15 37 c-8 20 -40 120 -72 222 -31
102 -64 190 -72 197 -12 9 -115 12 -397 13 -209 0 -402 -3 -428 -6 l-47 -7
-72 -216 c-39 -119 -74 -222 -76 -228 -7 -19 -773 -19 -773 0 0 15 24 84 78
222 22 55 67 170 100 255 33 85 81 207 107 270 131 321 557 1391 606 1523 16
43 43 112 60 153 l31 74 261 3 c144 1 287 3 318 5 31 1 83 -1 117 -4z m1746 0
c9 -3 118 -119 243 -258 125 -138 262 -287 304 -331 42 -44 169 -187 283 -318
122 -140 212 -235 218 -231 7 4 8 2 4 -5 -5 -8 23 -44 75 -99 46 -48 87 -88
91 -90 4 -2 8 296 8 662 l0 666 350 -2 351 -3 -1 -1250 0 -1250 -276 -3 -276
-2 -42 47 c-22 26 -72 83 -111 128 -38 45 -137 155 -220 245 -82 90 -177 193
-209 229 -32 36 -80 89 -105 116 -46 49 -176 197 -216 244 -47 58 -134 152
-214 235 l-86 88 -3 -666 -2 -666 -350 0 -350 0 0 1254 0 1255 23 4 c35 7 494
8 511 1z m-3551 -716 c3 -889 -1 -1191 -14 -1293 -21 -158 -79 -276 -179 -361
-95 -81 -212 -125 -380 -144 -128 -14 -716 -24 -810 -13 l-75 8 -3 120 c-2 66
-1 207 3 313 l7 192 322 0 c286 0 325 2 356 18 19 9 40 28 47 42 10 19 13 226
13 928 l0 902 355 0 355 0 3 -712z m7400 669 c10 -23 101 -247 202 -497 189
-472 224 -559 565 -1425 54 -137 117 -294 139 -347 22 -54 47 -120 55 -148
l15 -50 -387 0 -388 0 -63 188 c-34 103 -70 206 -78 230 l-16 42 -437 0 -438
0 -61 -182 c-34 -101 -69 -204 -79 -230 l-17 -48 -382 0 c-438 0 -401 -10
-358 100 14 36 23 71 20 78 -2 7 -1 11 4 8 5 -3 11 0 14 7 12 29 414 1037 517
1294 62 158 108 287 104 294 -4 7 -3 9 3 6 6 -4 71 149 154 358 l144 365 375
0 375 0 18 -43z m-7108 -2777 c22 -6 56 -18 76 -26 l37 -16 -22 -49 c-24 -55
-29 -57 -116 -32 -50 13 -67 14 -100 4 -37 -11 -40 -14 -40 -48 0 -30 8 -44
45 -80 25 -23 64 -55 86 -69 65 -41 130 -106 150 -149 25 -54 24 -136 -1 -183
-30 -58 -43 -70 -96 -94 -71 -32 -184 -30 -283 5 -40 14 -76 28 -79 31 -5 6
14 74 28 96 6 10 32 6 115 -15 151 -38 191 -28 202 53 4 33 1 44 -27 76 -18
20 -63 58 -99 83 -135 95 -180 155 -181 243 0 81 53 139 160 174 27 8 104 6
145 -4z m-1425 -15 c108 -29 163 -90 176 -195 18 -159 -68 -237 -273 -248
l-103 -5 0 -143 0 -144 -60 0 -60 0 -1 355 c-1 195 -2 361 -3 367 -1 18 44 25
164 27 64 0 127 -5 160 -14z m812 -18 c80 -36 149 -104 184 -180 26 -56 29
-73 29 -167 0 -93 -3 -112 -26 -161 -15 -31 -43 -74 -63 -96 -19 -22 -32 -44
-28 -48 4 -5 1 -5 -6 -1 -7 4 -24 -2 -38 -13 -43 -34 -147 -61 -233 -61 -210
0 -353 113 -391 308 -17 83 -8 168 25 239 42 93 119 160 224 195 85 28 246 21
323 -15z m1268 25 l55 -7 0 -50 c0 -43 -3 -50 -20 -51 -11 0 -57 -1 -102 -2
l-83 -2 0 -299 c0 -165 -3 -306 -6 -315 -5 -12 -20 -16 -63 -16 l-56 0 -4 313
c-2 171 -4 313 -5 314 -1 1 -46 3 -101 5 l-100 3 -3 52 -3 52 43 4 c73 6 390
5 448 -1z"/>
<path d="M4387 7308 c-19 -57 -70 -202 -112 -323 -42 -121 -83 -239 -91 -263
-8 -23 -12 -47 -9 -52 6 -11 495 -15 495 -4 0 3 -18 58 -39 122 -22 64 -76
229 -121 367 -44 137 -82 251 -84 253 -2 2 -20 -43 -39 -100z"/>
<path d="M9918 7333 c-23 -70 -131 -381 -202 -582 -14 -41 -26 -78 -26 -83 0
-4 113 -8 250 -8 138 0 250 3 250 6 0 8 -241 744 -244 744 -1 0 -13 -35 -28
-77z"/>
<path d="M1633 5223 l-33 -4 0 -115 0 -114 78 0 c87 0 139 19 160 60 17 32 9
105 -13 130 -28 31 -122 52 -192 43z"/>
<path d="M2344 5212 c-66 -23 -96 -43 -127 -84 -29 -38 -57 -116 -57 -158 0
-161 112 -273 271 -272 192 1 308 160 254 348 -30 106 -139 185 -254 184 -20
-1 -59 -9 -87 -18z"/>
</g>
</svg>
